<?xml version="1.0" encoding="utf-8"?>
<!-- Generator: Adobe Illustrator 15.0.2, SVG Export Plug-In  -->
<!DOCTYPE svg PUBLIC "-//W3C//DTD SVG 1.1//EN" "http://www.w3.org/Graphics/SVG/1.1/DTD/svg11.dtd" [
	<!ENTITY ns_flows "http://ns.adobe.com/Flows/1.0/">
]>
<svg version="1.1"
	 xmlns="http://www.w3.org/2000/svg" xmlns:xlink="http://www.w3.org/1999/xlink" xmlns:a="http://ns.adobe.com/AdobeSVGViewerExtensions/3.0/"
	 x="0px" y="0px" width="100px" height="100px" viewBox="11.887 15.79 100 100"
	 overflow="visible" enable-background="new 11.887 15.79 100 100" xml:space="preserve">
<defs>
</defs>
<rect fill="#FFFFFF" width="124.069" height="130.29"/>
<polygon fill="#78B6E4" points="62.762,65.753 62.762,86.168 80.613,78.214 80.613,56.182 62.629,64.688 "/>
<path fill="#4267B1" d="M63.383,110.527c-10.693,0-19.073-19.491-19.073-44.373c0-24.881,8.38-44.373,19.073-44.373
	s19.075,19.492,19.075,44.373C82.458,91.036,74.076,110.527,63.383,110.527z M63.383,24.057c-9.104,0-16.795,19.276-16.795,42.098
	s7.69,42.097,16.795,42.097c9.104,0,16.798-19.275,16.798-42.097S72.486,24.057,63.383,24.057z"/>
<path fill="#4267B1" d="M38.188,93.871c-6.574,0-11.163-1.933-13.267-5.593c-5.332-9.274,7.385-26.255,28.956-38.658
	c12.177-7.004,25.147-11.186,34.701-11.186c6.575,0,11.164,1.933,13.271,5.595c2.63,4.577,0.949,11.171-4.741,18.565
	c-5.479,7.128-14.077,14.261-24.215,20.089C60.714,89.688,47.743,93.871,38.188,93.871z M88.578,40.708
	c-9.171,0-21.719,4.069-33.572,10.886c-19.776,11.375-32.65,27.654-28.113,35.553c2.118,3.679,7.311,4.451,11.295,4.451
	c9.173,0,21.723-4.07,33.573-10.889c9.882-5.682,18.245-12.609,23.542-19.496c5.021-6.527,6.684-12.376,4.572-16.053
	C97.758,41.483,92.562,40.708,88.578,40.708z"/>
<path fill="#4267B1" d="M88.58,93.871h-0.002c-9.554,0-22.528-4.183-34.701-11.188c-10.14-5.828-18.739-12.961-24.218-20.089
	c-5.688-7.395-7.372-13.988-4.738-18.565c2.104-3.662,6.692-5.595,13.267-5.595c9.556,0,22.526,4.182,34.705,11.186
	c21.567,12.403,34.286,29.384,28.956,38.658C99.742,91.938,95.153,93.871,88.58,93.871z M38.188,40.708
	c-3.984,0-9.177,0.775-11.295,4.452c-2.111,3.677-0.448,9.525,4.569,16.053c5.302,6.887,13.662,13.814,23.544,19.496
	c11.849,6.818,24.399,10.889,33.572,10.889h0.002c3.986,0,9.178-0.772,11.295-4.451c4.54-7.898-8.336-24.178-28.114-35.553
	C59.91,44.777,47.36,40.708,38.188,40.708z"/>
<polygon fill="#27AAE1" points="63.939,45.946 45.918,55.634 62.526,65.268 80.035,55.604 "/>
<path fill="#4267B1" d="M62.526,66.391c-0.195,0-0.387-0.052-0.564-0.152l-16.608-9.63c-0.351-0.206-0.566-0.585-0.56-0.989
	c0.007-0.409,0.234-0.78,0.593-0.974l18.021-9.69c0.343-0.188,0.769-0.18,1.107,0.03l16.098,9.656
	c0.342,0.208,0.553,0.58,0.544,0.983c-0.006,0.402-0.226,0.771-0.582,0.961l-17.506,9.665
	C62.898,66.343,62.714,66.391,62.526,66.391z M48.219,55.672l14.322,8.307l15.245-8.415l-13.879-8.324L48.219,55.672z"/>
<rect x="61.6" y="65.253" fill="#4267B1" width="2.273" height="20.053"/>
</svg>
